# xmcd
#
# Track frame offsets:
#	150
#	22490
#	41417
#	63091
#	81066
#	97082
#	112079
#	134683
#	149094
#
# Disc length: 2196 seconds
#
# Revision: 3
# Processed by: cddbd v1.5.2PL0 Copyright (c) Steve Scherf et al.
# Submitted via: EasyCDDAExtractor 16.0.6.1
#
DISCID=89089209
DTITLE=Poco - C-117 Cantamos
DYEAR=1900
DGENRE=Country
TTITLE0=Sagebrush Serenade
TTITLE1=Susannah
TTITLE2=Whatever Happened To Your Smile
TTITLE3=High And Dry
TTITLE4=Another Time Around
TTITLE5=One Horse Blue
TTITLE6=Western Waterloo
TTITLE7=Bitter Blue
TTITLE8=All The Ways
EXTD=P 220
EXTT0=1974
EXTT1=1974
EXTT2=1974
EXTT3=1974
EXTT4=1974
EXTT5=1974
EXTT6=1974
EXTT7=1974
EXTT8=1974
PLAYORDER=
